<?xml version="1.0" encoding="UTF-8" standalone="no"?>
<svg
   version="1.0"
   width="1800"
   height="1800"
   viewBox="0 0 1350 1350"
   preserveAspectRatio="xMidYMid meet"
   id="svg212"
   sodipodi:docname="EH-logo-icon.svg"
   inkscape:version="1.1.1 (3bf5ae0d25, 2021-09-20)"
   xmlns:inkscape="http://www.inkscape.org/namespaces/inkscape"
   xmlns:sodipodi="http://sodipodi.sourceforge.net/DTD/sodipodi-0.dtd"
   xmlns="http://www.w3.org/2000/svg"
   xmlns:svg="http://www.w3.org/2000/svg">
  <defs
     id="defs216" />
  <sodipodi:namedview
     id="namedview214"
     pagecolor="#505050"
     bordercolor="#eeeeee"
     borderopacity="1"
     inkscape:pageshadow="0"
     inkscape:pageopacity="0"
     inkscape:pagecheckerboard="0"
     inkscape:document-units="px"
     showgrid="false"
     units="px"
     fit-margin-top="0"
     fit-margin-left="0"
     fit-margin-right="0"
     fit-margin-bottom="0"
     inkscape:zoom="0.38332245"
     inkscape:cx="890.89485"
     inkscape:cy="786.54406"
     inkscape:window-width="1920"
     inkscape:window-height="1001"
     inkscape:window-x="-9"
     inkscape:window-y="-9"
     inkscape:window-maximized="1"
     inkscape:current-layer="svg212" />
  <g
     transform="matrix(0.1,0,0,-0.1,-325,1441.703)"
     fill="#000000"
     stroke="none"
     id="g210">
    <path
       d="M 5715,9833 C 4401,8641 3325,7664 3325,7661 c 0,-8 -39,27 2559,-2325 2154,-1951 2229,-2018 2246,-2000 81,86 730,817 730,823 0,4 -866,792 -1925,1751 -1059,959 -1925,1746 -1925,1750 0,4 866,791 1925,1750 1059,959 1925,1747 1925,1751 0,4 -141,164 -312,356 -172,192 -340,379 -372,416 -33,37 -62,67 -65,66 -3,0 -1081,-975 -2396,-2166 z"
       id="path202" />
    <path
       d="m 11824,11933 c -32,-37 -200,-224 -371,-416 -172,-192 -313,-352 -313,-356 0,-4 866,-792 1925,-1751 1059,-959 1925,-1746 1925,-1750 0,-4 -866,-791 -1925,-1750 -1059,-959 -1925,-1747 -1925,-1751 0,-6 649,-737 730,-823 17,-18 92,49 2246,2000 2598,2352 2559,2317 2559,2325 0,6 -4781,4339 -4788,4339 -2,0 -30,-30 -63,-67 z"
       id="path204" />
    <path
       d="m 7470,8958 v -123 l 108,-39 c 59,-21 131,-47 160,-58 l 52,-19 v -934 -933 l -160,-57 -160,-58 v -123 -124 h 1050 1050 v 340 340 h -136 -135 l -13,-32 c -7,-18 -35,-88 -60,-155 l -48,-123 h -459 -459 v 375 375 h 355 354 l 20,-67 c 11,-38 26,-89 33,-115 l 12,-48 h 133 133 v 400 401 l -132,-3 -131,-3 -32,-95 -32,-95 -356,-3 -357,-2 v 365 365 l 461,-2 461,-3 57,-150 57,-150 137,-3 137,-3 v 341 340 H 8520 7470 Z"
       id="path206" />
    <path
       d="m 9852,8958 3,-123 155,-56 155,-56 3,-936 2,-935 -42,-16 c -24,-9 -95,-35 -158,-58 l -115,-43 -3,-123 -3,-122 h 556 555 v 124 123 l -160,58 -160,57 v 389 389 h 550 550 v -389 -389 l -122,-45 c -68,-24 -140,-50 -160,-58 l -38,-13 v -123 -123 h 555 555 v 123 123 l -37,13 c -21,8 -93,34 -161,58 l -122,45 2,935 3,935 155,56 155,57 3,123 3,122 h -556 -556 l 3,-122 3,-123 155,-57 155,-56 3,-351 2,-351 h -550 -550 v 349 350 l 53,19 c 28,11 100,37 159,58 l 108,39 v 123 122 h -555 -556 z"
       id="path208" />
  </g>
</svg>
